<?xml version="1.0" encoding="UTF-8"?>
<svg id="Capa_2" data-name="Capa 2" xmlns="http://www.w3.org/2000/svg" xmlns:xlink="http://www.w3.org/1999/xlink" viewBox="0 0 496.73 425.76">
  <defs>
    <style>
      .cls-1 {
        fill: url(#Degradado_sin_nombre_9-4);
      }

      .cls-2 {
        fill: url(#Degradado_sin_nombre_9-3);
      }

      .cls-3 {
        fill: url(#Degradado_sin_nombre_9-2);
      }

      .cls-4 {
        fill: url(#Degradado_sin_nombre_9);
      }
    </style>
    <radialGradient id="Degradado_sin_nombre_9" data-name="Degradado sin nombre 9" cx="-7.85" cy="399.33" fx="-7.85" fy="399.33" r="1154.27" gradientUnits="userSpaceOnUse">
      <stop offset="0" stop-color="#0049b2"/>
      <stop offset=".49" stop-color="#0046ad"/>
      <stop offset="1" stop-color="#0041a1"/>
    </radialGradient>
    <radialGradient id="Degradado_sin_nombre_9-2" data-name="Degradado sin nombre 9" cx="-7.85" fx="-7.85" r="1154.27" xlink:href="#Degradado_sin_nombre_9"/>
    <radialGradient id="Degradado_sin_nombre_9-3" data-name="Degradado sin nombre 9" cx="-7.85" fx="-7.85" r="1154.27" xlink:href="#Degradado_sin_nombre_9"/>
    <radialGradient id="Degradado_sin_nombre_9-4" data-name="Degradado sin nombre 9" cx="-7.85" fx="-7.85" r="1154.27" xlink:href="#Degradado_sin_nombre_9"/>
  </defs>
  <g id="Isolation_Mode" data-name="Isolation Mode">
    <g>
      <path class="cls-4" d="M177.41,19.42v388.01c0,10.13-8.21,18.33-18.33,18.33h-34.3c-10.13,0-18.33-8.21-18.33-18.33v-159.08h-35.48v159.08c0,10.13-8.21,18.33-18.33,18.33H18.33c-10.13,0-18.33-8.21-18.33-18.33V19.42C0,8.69,8.69,0,19.42,0h32.13c10.72,0,19.42,8.69,19.42,19.42v157.99h35.48V19.42c0-10.72,8.69-19.42,19.42-19.42h32.13c10.72,0,19.42,8.69,19.42,19.42Z"/>
      <g>
        <path class="cls-3" d="M241.07,0h24.43c10.12,0,18.33,8.22,18.33,18.33v389.09c0,10.12-8.22,18.33-18.33,18.33h-52.63V28.2c0-15.57,12.64-28.2,28.2-28.2Z"/>
        <path class="cls-2" d="M347.52,70.96h24.43c10.12,0,18.33,8.22,18.33,18.33v318.13c0,10.12-8.22,18.33-18.33,18.33h-52.63V99.17c0-15.57,12.64-28.2,28.2-28.2Z"/>
        <path class="cls-1" d="M453.97,141.93h24.43c10.12,0,18.33,8.22,18.33,18.33v247.17c0,10.12-8.22,18.33-18.33,18.33h-52.63v-255.63c0-15.57,12.64-28.2,28.2-28.2Z"/>
      </g>
    </g>
  </g>
</svg>